<?xml version="1.0" encoding="utf-8"?>
<!-- Generator: Adobe Illustrator 22.1.0, SVG Export Plug-In . SVG Version: 6.00 Build 0)  -->
<svg version="1.1" id="_xB9_Ã_xBC_h_x5F_1" xmlns="http://www.w3.org/2000/svg" xmlns:xlink="http://www.w3.org/1999/xlink"
	 x="0px" y="0px" viewBox="0 0 500 500" style="enable-background:new 0 0 500 500;" xml:space="preserve">
<style type="text/css">
	.st0{clip-path:url(#SVGID_2_);}
	.st1{fill:#262626;}
</style>
<g>
	<defs>
		<rect id="SVGID_1_" width="500" height="500"/>
	</defs>
	<clipPath id="SVGID_2_">
		<use xlink:href="#SVGID_1_"  style="overflow:visible;"/>
	</clipPath>
	<g class="st0">
		<path class="st1" d="M250,138.1c-2,0-3.6-1.6-3.6-3.6v-30.7c0-2,1.6-3.6,3.6-3.6s3.6,1.6,3.6,3.6v30.7
			C253.6,136.5,252,138.1,250,138.1z"/>
	</g>
	<g class="st0">
		<path class="st1" d="M226,140.4c-1.4,0-2.8-0.9-3.4-2.3l-10.4-26.6c-0.7-1.8,0.2-3.9,2-4.7c1.9-0.7,3.9,0.2,4.7,2l10.4,26.6
			c0.7,1.9-0.2,3.9-2,4.7C226.9,140.4,226.5,140.4,226,140.4z"/>
	</g>
	<g class="st0">
		<path class="st1" d="M274,140.4c-0.4,0-0.9-0.1-1.3-0.3c-1.9-0.7-2.8-2.8-2-4.7L281,109c0.7-1.9,2.8-2.8,4.7-2
			c1.9,0.7,2.8,2.8,2,4.7l-10.4,26.6C276.8,139.6,275.4,140.4,274,140.4z"/>
	</g>
	<g class="st0">
		<path class="st1" d="M385.6,289.8h-72.4c-4.5,0-8.2-3.7-8.2-8.2v-86c0-8.7-7.1-15.8-15.8-15.8h-78.4c-8.7,0-15.8,7.1-15.8,15.8v86
			c0,4.5-3.7,8.2-8.2,8.2h-72.4c-7.9,0-14.4,7.1-14.4,15.8V384c0,8.7,6.4,15.8,14.4,15.8H195h110h80.6c7.9,0,14.4-7.1,14.4-15.8
			v-78.4C400,296.8,393.6,289.8,385.6,289.8z M179.1,361.3c0,1.1-0.9,1.9-1.9,1.9h-33.2c-0.6,0-1.1-0.3-1.5-0.7
			c-0.4-0.5-0.5-1.1-0.4-1.6c0.6-2.8,1.8-5.5,3.5-8.1c2.2-3.3,6.2-7.1,12.2-11.5c3.7-2.7,6-4.8,7-6.2c1-1.4,1.5-2.7,1.5-4
			c0-1.4-0.5-2.5-1.5-3.5c-1-1-2.3-1.5-3.8-1.5c-1.6,0-2.9,0.5-3.9,1.5c-0.8,0.8-1.4,2-1.7,3.7c-0.2,0.9-1.1,1.6-2,1.5l-8.6-0.7
			c-0.5,0-1.1-0.3-1.4-0.8c-0.3-0.4-0.5-1-0.3-1.5c0.5-2.5,1.3-4.5,2.3-6.1c1.3-2,3.1-3.5,5.5-4.5c2.4-1.1,5.7-1.6,9.9-1.6
			c4.4,0,7.8,0.5,10.2,1.5c2.4,1,4.4,2.5,5.8,4.6c1.4,2.1,2.1,4.4,2.1,7c0,2.7-0.8,5.3-2.4,7.8c-1.6,2.5-4.5,5.2-8.7,8.2
			c-2.5,1.7-4.2,2.9-5,3.6c-0.4,0.4-0.9,0.8-1.4,1.3c-0.3,0.2-0.3,0.6-0.2,0.9c0.1,0.3,0.4,0.5,0.8,0.5h15.4c1.1,0,1.9,0.9,1.9,1.9
			V361.3z M256.7,260.6c0,0.8-0.7,1.5-1.5,1.5h-9.5c-0.8,0-1.5-0.7-1.5-1.5v-26.8c0-0.3-0.2-0.6-0.4-0.7c-0.3-0.1-0.6-0.1-0.8,0.1
			c-1.6,1.1-3.2,2.1-4.7,2.8c-1.6,0.8-3.4,1.5-5.6,2.3c-0.4,0.1-0.8,0.1-1.1-0.2c-0.3-0.2-0.5-0.6-0.5-1v-7.3c0-0.8,0.5-1.5,1.2-1.8
			c3.6-1.3,6.5-2.8,8.6-4.5c2-1.6,3.6-3.5,4.8-5.7c0.5-0.8,1.4-1.4,2.3-1.4h6c1.5,0,2.7,1.2,2.7,2.7V260.6z M361.5,356.2
			c-1.4,2.4-3.3,4.2-5.9,5.5c-2.6,1.3-5.9,1.9-10.1,1.9c-4.1,0-7.3-0.5-9.7-1.4c-2.4-1-4.3-2.4-5.8-4.2c-1.2-1.5-2.2-3.2-3-5.3
			c-0.1-0.4-0.1-0.8,0.1-1.2c0.2-0.4,0.6-0.6,1-0.7l9.5-1.3c0.7-0.1,1.4,0.4,1.5,1c0.5,1.9,1.2,3.2,2,4c1,1,2.3,1.5,3.9,1.5
			c1.7,0,3.1-0.6,4.2-1.8c1.1-1.2,1.7-2.9,1.7-4.9c0-2.1-0.5-3.7-1.6-4.8c-1.1-1.1-2.5-1.7-4.4-1.7c-0.6,0-1.3,0.1-2.2,0.3
			c-0.4,0.1-0.9,0-1.2-0.3c-0.3-0.3-0.5-0.7-0.5-1.2l0.4-5.5c0.1-0.8,0.7-1.3,1.5-1.3c0.1,0,0.2,0,0.3,0c1.6,0,3-0.5,4.1-1.6
			c1.1-1,1.6-2.3,1.6-3.7c0-1.4-0.4-2.5-1.2-3.3c-0.8-0.8-1.9-1.2-3.4-1.2c-1.5,0-2.7,0.4-3.6,1.3c-0.8,0.7-1.3,1.9-1.7,3.6
			c-0.1,0.6-0.7,1-1.3,0.9l-9.4-1.7c-0.3-0.1-0.6-0.3-0.8-0.6c-0.2-0.3-0.2-0.7-0.1-1c1.1-3.1,2.8-5.6,5.3-7.3c2.8-2,6.7-3,11.8-3
			c5.9,0,10.1,1.1,12.7,3.3c2.6,2.2,3.9,4.9,3.9,8.2c0,1.9-0.5,3.7-1.6,5.3c-1.1,1.6-2.7,2.9-4.8,4.1c1.7,0.4,3.1,0.9,4,1.5
			c1.5,0.9,2.6,2.1,3.5,3.6c0.8,1.5,1.2,3.3,1.2,5.4C363.5,351.3,362.8,353.8,361.5,356.2z"/>
	</g>
</g>
</svg>
