<?xml version="1.0" encoding="utf-8"?>
<!-- Generator: Adobe Illustrator 22.1.0, SVG Export Plug-In . SVG Version: 6.00 Build 0)  -->
<svg version="1.1" id="Layer_1" xmlns="http://www.w3.org/2000/svg" xmlns:xlink="http://www.w3.org/1999/xlink" x="0px" y="0px"
	 viewBox="0 0 1000 1000" style="enable-background:new 0 0 1000 1000;" xml:space="preserve">
<style type="text/css">
	.st0{fill:#333333;}
</style>
<g>
	<path class="st0" d="M500.5,137c-115.8,0-210,95.2-210,212.2v247.6c0,117,94.2,212.2,210,212.2c115.8,0,210-95.2,210-212.2V349.1
		C710.5,232.2,616.3,137,500.5,137z M668.5,603.9v-7.2c0,93.6-75.4,169.7-168,169.7c-92.6,0-168-76.1-168-169.7v7.2V476.3V349.1
		c0-93.6,75.4-169.7,168-169.7c92.6,0,168,76.1,168,169.7v127.1V603.9z"/>
	<path class="st0" d="M500.5,459.6c-14.5,0-26.2-11.7-26.2-26.2v-73.5c0-14.5,11.8-26.2,26.2-26.2c14.5,0,26.2,11.7,26.2,26.2v73.5
		C526.7,447.8,515,459.6,500.5,459.6z"/>
</g>
</svg>
